<svg xmlns="http://www.w3.org/2000/svg" width="1366" height="765.19" viewBox="0 0 1366 765.19"><defs><style>.cls-1{fill:#094500;}.cls-2{fill:#66a013;}.cls-3{fill:#fff;}.cls-4{fill:#0a0909;}.cls-5{fill:#070505;}</style></defs><g id="Layer_2" data-name="Layer 2"><g id="Layer_3" data-name="Layer 3"><rect class="cls-1" x="2.5" y="2.18" width="61.19" height="760.83"/><path class="cls-2" d="M66.19,765.19H0V0H66.19ZM5,760.83H61.19V4.36H5Z"/><rect class="cls-1" x="1302.31" y="2.18" width="61.19" height="760.83"/><path class="cls-2" d="M1366,765.19h-66.19V0H1366Zm-61.19-4.36H1361V4.36h-56.19Z"/><rect class="cls-1" x="63.69" y="728.5" width="1238.62" height="34.51"/><path class="cls-2" d="M1304.81,765.19H61.19V726.32H1304.81ZM66.19,760.83H1299.81V730.68H66.19Z"/><rect class="cls-1" x="63.69" y="2.18" width="1238.62" height="34.51"/><path class="cls-2" d="M1304.81,38.87H61.19V0H1304.81ZM66.19,34.51H1299.81V4.36H66.19Z"/><rect class="cls-3" x="66.2" y="38.79" width="152.16" height="86.21"/><rect class="cls-4" x="218.36" y="38.79" width="154.86" height="86.21"/><rect class="cls-3" x="373.22" y="38.79" width="154.55" height="86.21"/><rect x="527.77" y="38.79" width="155.23" height="86.21"/><rect class="cls-3" x="683" y="38.79" width="154.73" height="86.21"/><rect class="cls-5" x="837.73" y="38.79" width="155.06" height="86.21"/><rect class="cls-3" x="992.79" y="38.79" width="154.67" height="86.21"/><rect x="1147.46" y="38.79" width="152.16" height="86.21"/><rect class="cls-3" x="1147.55" y="125" width="152.16" height="86.21" transform="translate(2447.27 336.21) rotate(180)"/><rect class="cls-4" x="992.69" y="125" width="154.86" height="86.21" transform="translate(2140.24 336.21) rotate(180)"/><rect class="cls-3" x="838.14" y="125" width="154.55" height="86.21" transform="translate(1830.83 336.21) rotate(180)"/><rect x="682.91" y="125" width="155.23" height="86.21" transform="translate(1521.05 336.21) rotate(180)"/><rect class="cls-3" x="528.18" y="125" width="154.73" height="86.21" transform="translate(1211.09 336.21) rotate(180)"/><rect class="cls-5" x="373.12" y="125" width="155.06" height="86.21" transform="translate(901.29 336.21) rotate(180)"/><rect class="cls-3" x="218.45" y="125" width="154.67" height="86.21" transform="translate(591.56 336.21) rotate(180)"/><rect x="66.2" y="125" width="152.16" height="86.21" transform="translate(284.55 336.21) rotate(180)"/><rect class="cls-3" x="66.2" y="211.21" width="152.16" height="86.21"/><rect class="cls-4" x="218.36" y="211.21" width="154.86" height="86.21"/><rect class="cls-3" x="373.22" y="211.21" width="154.55" height="86.21"/><rect x="527.77" y="211.21" width="155.23" height="86.21"/><rect class="cls-3" x="683" y="211.21" width="154.73" height="86.21"/><rect class="cls-5" x="837.73" y="211.21" width="155.06" height="86.21"/><rect class="cls-3" x="992.79" y="211.21" width="154.67" height="86.21"/><rect x="1147.46" y="211.21" width="152.16" height="86.21"/><rect class="cls-3" x="1147.46" y="297.43" width="152.16" height="86.21" transform="translate(2447.09 681.07) rotate(180)"/><rect class="cls-4" x="992.6" y="297.43" width="154.86" height="86.21" transform="translate(2140.06 681.07) rotate(180)"/><rect class="cls-3" x="838.05" y="297.43" width="154.55" height="86.21" transform="translate(1830.65 681.07) rotate(180)"/><rect x="682.82" y="297.43" width="155.23" height="86.21" transform="translate(1520.87 681.07) rotate(180)"/><rect class="cls-3" x="528.09" y="297.43" width="154.73" height="86.21" transform="translate(1210.91 681.07) rotate(180)"/><rect class="cls-5" x="373.03" y="297.43" width="155.06" height="86.21" transform="translate(901.11 681.07) rotate(180)"/><rect class="cls-3" x="218.36" y="297.43" width="154.67" height="86.21" transform="translate(591.38 681.07) rotate(180)"/><rect x="66.2" y="297.43" width="152.16" height="86.21" transform="translate(284.55 681.07) rotate(180)"/><rect class="cls-3" x="66.2" y="383.64" width="152.16" height="86.21"/><rect class="cls-4" x="218.36" y="383.64" width="154.86" height="86.21"/><rect class="cls-3" x="373.22" y="383.64" width="154.55" height="86.21"/><rect x="527.77" y="383.64" width="155.23" height="86.21"/><rect class="cls-3" x="683" y="383.64" width="154.73" height="86.21"/><rect class="cls-5" x="837.73" y="383.64" width="155.06" height="86.21"/><rect class="cls-3" x="992.79" y="383.64" width="154.67" height="86.21"/><rect x="1147.46" y="383.64" width="152.16" height="86.21"/><rect class="cls-3" x="1147.46" y="469.86" width="152.16" height="86.21" transform="matrix(-1, 0, 0, -1, 2447.09, 1025.92)"/><rect class="cls-4" x="992.6" y="469.86" width="154.86" height="86.21" transform="matrix(-1, 0, 0, -1, 2140.06, 1025.92)"/><rect class="cls-3" x="838.05" y="469.86" width="154.55" height="86.21" transform="matrix(-1, 0, 0, -1, 1830.65, 1025.92)"/><rect x="682.82" y="469.86" width="155.23" height="86.21" transform="matrix(-1, 0, 0, -1, 1520.87, 1025.92)"/><rect class="cls-3" x="528.09" y="469.86" width="154.73" height="86.21" transform="matrix(-1, 0, 0, -1, 1210.91, 1025.92)"/><rect class="cls-5" x="373.03" y="469.86" width="155.06" height="86.21" transform="matrix(-1, 0, 0, -1, 901.12, 1025.92)"/><rect class="cls-3" x="218.36" y="469.86" width="154.67" height="86.21" transform="matrix(-1, 0, 0, -1, 591.38, 1025.93)"/><rect x="66.2" y="469.86" width="152.16" height="86.21" transform="matrix(-1, 0, 0, -1, 284.55, 1025.93)"/><rect class="cls-3" x="66.11" y="556.07" width="152.16" height="86.21"/><rect class="cls-4" x="218.27" y="556.07" width="154.86" height="86.21"/><rect class="cls-3" x="373.13" y="556.07" width="154.55" height="86.21"/><rect x="527.68" y="556.07" width="155.23" height="86.21"/><rect class="cls-3" x="682.91" y="556.07" width="154.73" height="86.21"/><rect class="cls-5" x="837.64" y="556.07" width="155.06" height="86.21"/><rect class="cls-3" x="992.71" y="556.07" width="154.67" height="86.21"/><rect x="1147.37" y="556.07" width="152.16" height="86.21"/><rect class="cls-3" x="1147.55" y="642.28" width="152.16" height="86.21" transform="translate(2447.27 1370.78) rotate(180)"/><rect class="cls-4" x="992.69" y="642.28" width="154.86" height="86.21" transform="translate(2140.24 1370.78) rotate(180)"/><rect class="cls-3" x="838.14" y="642.28" width="154.55" height="86.21" transform="translate(1830.83 1370.78) rotate(180)"/><rect x="682.91" y="642.28" width="155.23" height="86.21" transform="translate(1521.05 1370.78) rotate(180)"/><rect class="cls-3" x="528.18" y="642.28" width="154.73" height="86.21" transform="translate(1211.09 1370.78) rotate(180)"/><rect class="cls-5" x="373.12" y="642.28" width="155.06" height="86.21" transform="translate(901.29 1370.78) rotate(180)"/><rect class="cls-3" x="218.45" y="642.28" width="154.67" height="86.21" transform="translate(591.56 1370.78) rotate(180)"/><rect x="66.29" y="642.28" width="152.16" height="86.21" transform="translate(284.73 1370.78) rotate(180)"/><path class="cls-3" d="M147.23,26.19h-7.86l-1.26,3.71h-5.37l7.62-21h5.94l7.62,21h-5.43ZM143.3,14.52l-2.58,7.71h5.19Z"/><path class="cls-3" d="M300.17,29.9h-9.81v-21h9.48c4.29,0,6.84,2.13,6.84,5.46a4.76,4.76,0,0,1-3.57,4.79,5.11,5.11,0,0,1,4.05,5.07C307.16,27.65,304.61,29.9,300.17,29.9ZM298.85,13h-3.36v4.41h3.36c1.68,0,2.61-.75,2.61-2.19S300.53,13,298.85,13Zm.36,8.16h-3.72v4.65h3.78c1.71,0,2.7-.79,2.7-2.29S300.92,21.12,299.21,21.12Z"/><path class="cls-3" d="M458.9,8.61c5,0,8.79,2.82,10,7.38h-5.64a4.64,4.64,0,0,0-4.41-2.7c-3.15,0-5.31,2.34-5.31,6.06s2.16,6,5.31,6a4.65,4.65,0,0,0,4.41-2.69h5.64c-1.2,4.56-5,7.34-10,7.34-6.21,0-10.59-4.4-10.59-10.7S452.69,8.61,458.9,8.61Z"/><path class="cls-3" d="M626.33,19.53c0,6.24-4.32,10.53-11,10.53H607.4V9h7.89C622,9,626.33,13.26,626.33,19.53ZM615,25.62c3.87,0,6.15-2.22,6.15-6.09s-2.28-6.15-6.15-6.15h-2.43V25.62Z"/><path class="cls-3" d="M775.12,13h-7.77v4.26h6.87v4h-6.87v4.61h7.77V29.9h-12.9v-21h12.9Z"/><path class="cls-3" d="M917.12,8.85h13.71V13h-8.58V17.4h6.42v4h-6.42V29.9h-5.13Z"/><path class="cls-3" d="M1091.54,15.51h-5.67a4.41,4.41,0,0,0-4.14-2.16c-3.3,0-5.49,2.34-5.49,6,0,3.9,2.22,6.17,5.91,6.17a5,5,0,0,0,5.1-3.71h-6.51V18h11.16v4.76a10.31,10.31,0,0,1-10.14,7.26c-6.3,0-10.74-4.4-10.74-10.7s4.41-10.74,10.71-10.74C1086.77,8.61,1090.43,11.19,1091.54,15.51Z"/><path class="cls-3" d="M1238.51,21.39h-8v8.67h-5.13V9h5.13v8.25h8V9h5.13V30.06h-5.13Z"/><path class="cls-3" d="M147.23,752.61h-7.86l-1.26,3.72h-5.37l7.62-21.06h5.94l7.62,21.06h-5.43Zm-3.93-11.67-2.58,7.71h5.19Z"/><path class="cls-3" d="M300.17,756.33h-9.81V735.27h9.48c4.29,0,6.84,2.13,6.84,5.46a4.78,4.78,0,0,1-3.57,4.8,5.11,5.11,0,0,1,4.05,5.07C307.16,754.08,304.61,756.33,300.17,756.33Zm-1.32-17h-3.36v4.41h3.36c1.68,0,2.61-.75,2.61-2.19S300.53,739.38,298.85,739.38Zm.36,8.16h-3.72v4.65h3.78c1.71,0,2.7-.78,2.7-2.28S300.92,747.54,299.21,747.54Z"/><path class="cls-3" d="M458.9,735c5,0,8.79,2.82,10,7.38h-5.64a4.64,4.64,0,0,0-4.41-2.7c-3.15,0-5.31,2.34-5.31,6.06s2.16,6.06,5.31,6.06a4.64,4.64,0,0,0,4.41-2.7h5.64c-1.2,4.56-5,7.35-10,7.35-6.21,0-10.59-4.41-10.59-10.71S452.69,735,458.9,735Z"/><path class="cls-3" d="M626.33,746c0,6.24-4.32,10.53-11,10.53H607.4V735.42h7.89C622,735.42,626.33,739.68,626.33,746ZM615,752c3.87,0,6.15-2.22,6.15-6.09s-2.28-6.15-6.15-6.15h-2.43V752Z"/><path class="cls-3" d="M775.12,739.38h-7.77v4.26h6.87v4h-6.87v4.62h7.77v4.11h-12.9V735.27h12.9Z"/><path class="cls-3" d="M917.12,735.27h13.71v4.11h-8.58v4.44h6.42v4h-6.42v8.52h-5.13Z"/><path class="cls-3" d="M1091.54,741.93h-5.67a4.41,4.41,0,0,0-4.14-2.16c-3.3,0-5.49,2.34-5.49,6,0,3.9,2.22,6.18,5.91,6.18a5,5,0,0,0,5.1-3.72h-6.51v-3.78h11.16v4.77a10.31,10.31,0,0,1-10.14,7.26c-6.3,0-10.74-4.41-10.74-10.71s4.41-10.74,10.71-10.74C1086.77,735,1090.43,737.61,1091.54,741.93Z"/><path class="cls-3" d="M1238.51,747.81h-8v8.67h-5.13V735.42h5.13v8.25h8v-8.25h5.13v21.06h-5.13Z"/><path class="cls-3" d="M27.58,72.3c0-3.12,2.43-5.88,7.59-5.88s7.56,2.76,7.56,5.88A5.12,5.12,0,0,1,39.91,77a5.62,5.62,0,0,1,3.36,5.34c0,4.38-3.63,6.84-8.1,6.84s-8.1-2.46-8.1-6.84A5.61,5.61,0,0,1,30.4,77,5,5,0,0,1,27.58,72.3ZM32,82.11A2.85,2.85,0,0,0,35.17,85a2.83,2.83,0,0,0,3.09-2.88,2.8,2.8,0,0,0-3.09-2.88C33.34,79.23,32,80.25,32,82.11Zm5.73-9a2.39,2.39,0,0,0-2.58-2.58,2.57,2.57,0,1,0,0,5.13A2.43,2.43,0,0,0,37.75,73.08Z"/><path class="cls-3" d="M41.62,157.94v3.81l-7.53,18.06H28.84l7.62-17.49H27.13v-4.38Z"/><path class="cls-3" d="M37.63,251.26A2.37,2.37,0,0,0,35.08,249c-2.31,0-3.21,2-3.24,6.18A5.35,5.35,0,0,1,36.49,253c3.81,0,6.51,2.49,6.51,7,0,4.35-2.76,7.35-7.47,7.35-6.6,0-8.22-4.68-8.22-11.22,0-7.5,2.34-11.25,8-11.25,4.71,0,6.81,3.12,7.08,6.36ZM32.26,260A2.79,2.79,0,0,0,35.32,263a3,3,0,0,0-.06-6A2.78,2.78,0,0,0,32.26,260Z"/><path class="cls-3" d="M43.69,328.66v4.5H34.33v4.13a5.54,5.54,0,0,1,4-1.5c4.77,0,6.6,3.63,6.6,7.17,0,4.62-2.7,7.62-7.56,7.62s-7.77-2.73-7.95-6.51h5a2.59,2.59,0,0,0,2.76,2.16c1.95,0,2.79-1.41,2.79-3.3s-1-3-2.82-3a2.43,2.43,0,0,0-2.55,1.8h-5v-13Z"/><path class="cls-3" d="M37,432.61H26.92v-4.14l9.48-13.56h5.73v13.26h2.46v4.44H42.13v3.9H37Zm.36-4.44v-7.62l-5,7.62Z"/><path class="cls-3" d="M36.31,500.17c4.62,0,7.11,2.64,7.11,5.94a5,5,0,0,1-3.3,4.92v.12a5.12,5.12,0,0,1,3.69,5.28c0,3.69-2.64,6.33-7.23,6.33s-7.86-2.16-8-7.11h5a2.62,2.62,0,0,0,2.85,2.85A2.28,2.28,0,0,0,38.86,516c0-1.95-1.17-2.73-3.84-2.73h-1v-4.17h1c1.74,0,3.42-.42,3.42-2.4a2.08,2.08,0,0,0-2.25-2.28,2.28,2.28,0,0,0-2.34,2.4h-5C29,502.54,31.84,500.17,36.31,500.17Z"/><path class="cls-3" d="M29.74,606.28c4.65-3.84,9.6-7.65,9.6-11.34,0-1.59-.72-2.61-2.28-2.61s-2.43,1.2-2.43,3.27h-5c.15-5.31,3.6-7.59,7.59-7.59,5,0,7.2,2.91,7.2,6.6,0,4.8-4.29,8.64-7.77,11.31h8.1v4.17H29.74Z"/><path class="cls-3" d="M36.87,674.59h-3v-4.77h8.31v21.9H36.87Z"/><path class="cls-3" d="M1325.09,66.06c0-3.12,2.43-5.88,7.59-5.88s7.56,2.76,7.56,5.88a5.12,5.12,0,0,1-2.82,4.71,5.62,5.62,0,0,1,3.36,5.34c0,4.38-3.63,6.84-8.1,6.84s-8.1-2.46-8.1-6.84a5.61,5.61,0,0,1,3.33-5.34A5,5,0,0,1,1325.09,66.06Zm4.44,9.81a3.13,3.13,0,0,0,6.24,0,2.8,2.8,0,0,0-3.09-2.88C1330.85,73,1329.53,74,1329.53,75.87Zm5.73-9a2.58,2.58,0,1,0-2.58,2.55A2.43,2.43,0,0,0,1335.26,66.84Z"/><path class="cls-3" d="M1339.13,151.69v3.81l-7.53,18.06h-5.25l7.62-17.49h-9.33v-4.38Z"/><path class="cls-3" d="M1335.14,245a2.37,2.37,0,0,0-2.55-2.22c-2.31,0-3.21,2-3.24,6.18a5.35,5.35,0,0,1,4.65-2.25c3.81,0,6.51,2.49,6.51,7.05,0,4.35-2.76,7.35-7.47,7.35-6.6,0-8.22-4.68-8.22-11.22,0-7.5,2.34-11.25,8-11.25,4.71,0,6.81,3.12,7.08,6.36Zm-5.37,8.7a2.79,2.79,0,0,0,3.06,3.06,3,3,0,0,0-.06-6A2.78,2.78,0,0,0,1329.77,253.71Z"/><path class="cls-3" d="M1341.2,322.41v4.5h-9.36v4.14a5.5,5.5,0,0,1,4-1.5c4.77,0,6.6,3.63,6.6,7.17,0,4.62-2.7,7.62-7.56,7.62s-7.77-2.73-8-6.51h5a2.59,2.59,0,0,0,2.76,2.16c2,0,2.79-1.41,2.79-3.3s-1-3-2.82-3a2.42,2.42,0,0,0-2.55,1.8h-5v-13Z"/><path class="cls-3" d="M1334.51,426.37h-10.08v-4.14l9.48-13.56h5.73v13.26h2.46v4.44h-2.46v3.9h-5.13Zm.36-4.44v-7.62l-5,7.62Z"/><path class="cls-3" d="M1333.82,493.93c4.62,0,7.11,2.64,7.11,5.94a5,5,0,0,1-3.3,4.92v.12a5.12,5.12,0,0,1,3.69,5.28c0,3.69-2.64,6.33-7.23,6.33s-7.86-2.16-8-7.11h5a2.62,2.62,0,0,0,2.85,2.85,2.28,2.28,0,0,0,2.46-2.46c0-1.95-1.17-2.73-3.84-2.73h-1V502.9h1c1.74,0,3.42-.42,3.42-2.4a2.08,2.08,0,0,0-2.25-2.28,2.28,2.28,0,0,0-2.34,2.4h-5C1326.53,496.3,1329.35,493.93,1333.82,493.93Z"/><path class="cls-3" d="M1327.25,600c4.65-3.84,9.6-7.65,9.6-11.34,0-1.59-.72-2.61-2.28-2.61s-2.43,1.2-2.43,3.27h-5c.15-5.31,3.6-7.59,7.59-7.59,5,0,7.2,2.91,7.2,6.6,0,4.8-4.29,8.64-7.77,11.31h8.1v4.17h-15.06Z"/><path class="cls-3" d="M1334.38,668.34h-3v-4.76h8.3v21.89h-5.34Z"/></g></g></svg>