<svg xmlns="http://www.w3.org/2000/svg" width="229" height="194" viewBox="0 0 229 194"><defs><style>.cls-1{fill:#fff;}.cls-2{fill:none;stroke:#707070;}.cls-3{isolation:isolate;}</style></defs><g id="Layer_2" data-name="Layer 2"><g id="Layer_1-2" data-name="Layer 1"><g id="Group_19" data-name="Group 19"><g id="Rectangle_54" data-name="Rectangle 54"><rect class="cls-1" width="229" height="194"/><rect class="cls-2" x="0.5" y="0.5" width="228" height="193"/></g><g id="Group_17" data-name="Group 17"><g id="Group_14" data-name="Group 14"><g id="N" class="cls-3"><g class="cls-3"><path d="M34.1,37.17H73.63l89.05,109.25v-84q0-13.42-3-16.76-4-4.5-12.57-4.51h-5.05v-4h50.7v4h-5.15q-9.24,0-13.11,5.59-2.37,3.44-2.36,15.68V185.2h-3.87l-96-117.31v89.7q0,13.42,2.9,16.76c2.73,3,6.91,4.51,12.57,4.51h5.16v4H42.16v-4h5.05q9.34,0,13.21-5.59,2.36-3.44,2.36-15.68V56.29q-6.35-7.41-9.61-9.78a35.52,35.52,0,0,0-9.62-4.4,34,34,0,0,0-9.45-1Z" transform="translate(0 -11.83)"/></g></g></g></g><g id="Group_18" data-name="Group 18"><g id="Group_14-2" data-name="Group 14-2"><g id="P" class="cls-3"><g class="cls-3"><path d="M147.2,113.15v30.28q0,9.82,2.14,12.19c1.95,2.25,4.88,3.38,8.82,3.38h4v2.83H117.61V159h3.91q6.58,0,9.43-4.3,1.53-2.37,1.53-11.27V76.28q0-9.81-2.07-12.19-3-3.37-8.89-3.37h-3.91V57.88h38.1q13.95,0,22,2.88a30.32,30.32,0,0,1,13.57,9.69,24.93,24.93,0,0,1,5.52,16.18q0,12.72-8.4,20.7t-23.72,8a66.48,66.48,0,0,1-8.13-.54Q152.18,114.23,147.2,113.15Zm0-4.37c2.71.51,5.11.9,7.2,1.15a44.75,44.75,0,0,0,5.37.39,18.26,18.26,0,0,0,13.76-6.17q5.79-6.18,5.79-16a28.75,28.75,0,0,0-2.76-12.53A19.1,19.1,0,0,0,168.74,67a22.93,22.93,0,0,0-11.5-2.87,45.43,45.43,0,0,0-10,1.46Z" transform="translate(0 -11.83)"/></g></g></g></g></g></g></g></svg>