<svg xmlns="http://www.w3.org/2000/svg" width="229" height="194" viewBox="0 0 229 194"><defs><style>.cls-1{fill:#fff;}.cls-2{fill:#707070;}.cls-3{isolation:isolate;}</style></defs><g id="Layer_2" data-name="Layer 2"><g id="Layer_1-2" data-name="Layer 1"><g id="Group_19" data-name="Group 19"><g id="Rectangle_54" data-name="Rectangle 54"><rect class="cls-1" width="229" height="194"/><path class="cls-2" d="M229,194H0V0H229ZM1,193H228V1H1Z"/></g><g id="Group_17" data-name="Group 17"><g id="Group_14" data-name="Group 14"><g id="N" class="cls-3"><g class="cls-3"><path d="M34.1,25.34H73.63l89.05,109.24v-84q0-13.42-3-16.76-4-4.52-12.57-4.51h-5.05v-4h50.7v4h-5.15q-9.24,0-13.11,5.59-2.37,3.43-2.36,15.68V173.36h-3.87l-96-117.3v89.7q0,13.43,2.9,16.75c2.73,3,6.91,4.52,12.57,4.52h5.16v4H42.16v-4h5.05q9.34,0,13.21-5.59,2.36-3.44,2.36-15.68V44.46q-6.35-7.41-9.61-9.78a35.52,35.52,0,0,0-9.62-4.4,34,34,0,0,0-9.45-1Z"/></g></g></g></g><g id="Group_18" data-name="Group 18"><g id="Group_14-2" data-name="Group 14-2"><g id="P" class="cls-3"><g class="cls-3"><path d="M147.2,101.32V131.6q0,9.81,2.14,12.19c1.95,2.25,4.88,3.37,8.82,3.37h4V150H117.61v-2.84h3.91q6.58,0,9.43-4.29,1.53-2.37,1.53-11.27V64.45q0-9.81-2.07-12.19-3-3.37-8.89-3.38h-3.91V46.05h38.1q13.95,0,22,2.87a30.34,30.34,0,0,1,13.57,9.7A24.93,24.93,0,0,1,196.8,74.8q0,12.72-8.4,20.69t-23.72,8a66.48,66.48,0,0,1-8.13-.54C153.64,102.57,150.52,102,147.2,101.32Zm0-4.37c2.71.51,5.11.9,7.2,1.15a44.5,44.5,0,0,0,5.37.38,18.23,18.23,0,0,0,13.76-6.17q5.79-6.16,5.79-16a28.72,28.72,0,0,0-2.76-12.53,19.1,19.1,0,0,0-7.82-8.67,22.93,22.93,0,0,0-11.5-2.87,45.33,45.33,0,0,0-10,1.45Z"/></g></g></g></g></g></g></g></svg>